<?xml version="1.0" standalone="no"?>
<!DOCTYPE svg PUBLIC "-//W3C//DTD SVG 20010904//EN"
 "http://www.w3.org/TR/2001/REC-SVG-20010904/DTD/svg10.dtd">
<svg version="1.0" xmlns="http://www.w3.org/2000/svg"
 width="700.000000pt" height="700.000000pt" viewBox="0 0 700.000000 700.000000"
 preserveAspectRatio="xMidYMid meet">
<metadata>
Created by potrace 1.14, written by Peter Selinger 2001-2017
</metadata>
<g transform="translate(0.000000,700.000000) scale(0.100000,-0.100000)"
fill="#000000" stroke="none">
<path d="M3910 6993 c-8 -3 -60 -26 -115 -50 -238 -106 -389 -194 -635 -372
-207 -149 -222 -161 -355 -295 -89 -89 -144 -155 -208 -252 -74 -109 -94 -133
-125 -144 -59 -21 -180 -101 -344 -227 -54 -42 -207 -203 -252 -265 -53 -75
-120 -200 -173 -323 -37 -83 -94 -245 -88 -245 2 0 -1 -15 -6 -32 -26 -89 -29
-310 -5 -435 2 -11 7 -64 10 -119 15 -241 18 -284 21 -311 4 -33 17 -197 19
-233 3 -64 -38 -176 -71 -196 -10 -6 -38 -22 -63 -36 -25 -14 -74 -43 -110
-64 -36 -21 -73 -43 -82 -49 -9 -5 -45 -27 -80 -49 -35 -21 -70 -40 -78 -42
-189 -43 -220 -58 -220 -99 0 -30 27 -52 75 -61 22 -4 69 -21 105 -37 57 -26
75 -30 153 -29 105 1 127 7 127 32 0 17 -8 19 -67 19 -82 0 -124 12 -162 44
l-29 24 47 15 c25 8 115 58 199 112 l154 97 -7 -53 c-8 -65 -23 -118 -40 -138
-7 -8 -32 -55 -56 -105 -70 -145 -164 -295 -229 -365 -103 -110 -205 -278
-250 -410 -12 -36 -28 -72 -35 -80 -7 -8 -29 -53 -50 -100 -21 -47 -49 -100
-62 -118 -14 -19 -59 -84 -101 -145 -41 -62 -92 -137 -113 -167 -34 -51 -65
-121 -91 -210 -15 -52 -3 -144 27 -205 22 -46 34 -58 74 -76 l47 -22 -4 -46
c-2 -25 -9 -71 -16 -101 -18 -77 -15 -171 7 -204 22 -33 116 -107 205 -162 38
-23 81 -59 100 -85 87 -118 115 -141 192 -154 14 -3 55 -14 90 -25 35 -11 78
-23 94 -26 17 -2 46 -9 64 -14 33 -9 230 -6 267 4 85 23 118 27 175 23 84 -7
157 -32 195 -67 42 -39 121 -80 165 -86 40 -6 85 12 122 46 19 18 21 17 40 -2
45 -45 132 -57 190 -27 25 12 118 109 118 121 0 5 6 8 13 8 42 0 119 34 149
65 26 27 43 36 77 40 53 5 82 14 96 29 29 30 56 89 59 130 2 25 13 60 24 78
21 36 32 73 37 131 4 40 30 135 42 153 5 7 34 14 66 17 59 5 78 15 112 57 50
63 62 70 118 70 45 0 71 9 156 51 l103 51 82 -5 c104 -7 132 -13 166 -39 18
-13 47 -22 79 -23 97 -6 136 -17 201 -60 112 -74 157 -92 232 -94 19 -1 32
-11 46 -35 15 -26 32 -38 64 -47 59 -17 71 -29 97 -102 18 -53 28 -67 56 -80
19 -9 43 -14 54 -12 26 5 26 -8 5 -80 -14 -51 -19 -56 -82 -92 -37 -22 -77
-54 -90 -73 -22 -32 -23 -42 -18 -111 l6 -76 -41 -64 c-32 -49 -42 -76 -46
-119 -6 -70 14 -135 42 -135 17 0 20 7 21 50 1 28 2 61 3 75 0 15 21 48 51 80
58 65 71 97 73 186 l2 66 58 32 c76 42 93 61 116 126 31 87 36 163 15 199 -18
31 -39 41 -89 41 -28 0 -32 4 -43 45 -15 58 -70 118 -122 135 -25 8 -47 24
-58 42 -21 35 -71 59 -125 60 -47 0 -73 12 -170 75 -72 48 -144 73 -217 74
-27 1 -61 11 -85 24 -55 32 -114 44 -225 45 -74 2 -126 -14 -224 -65 -51 -26
-80 -35 -117 -35 -68 0 -108 -19 -156 -75 -36 -42 -46 -48 -84 -50 -24 -1 -56
-7 -71 -13 -59 -24 -105 -125 -123 -272 -3 -25 -14 -57 -25 -71 -20 -28 -42
-98 -34 -110 10 -17 -20 -59 -43 -60 -78 -4 -107 -16 -145 -58 -26 -29 -46
-40 -90 -50 -52 -11 -63 -18 -114 -77 -33 -37 -65 -64 -76 -64 -10 0 -36 18
-57 40 -45 48 -81 52 -132 15 -19 -13 -44 -32 -56 -40 -20 -15 -24 -15 -61 4
-22 11 -42 24 -44 29 -9 21 -80 62 -143 82 -90 27 -204 33 -291 14 -159 -34
-234 -29 -464 32 -94 25 -107 32 -141 85 -17 27 -47 65 -68 87 -35 36 -36 40
-24 67 6 17 12 40 13 52 0 18 9 25 43 33 23 6 51 14 62 17 37 11 120 55 180
98 33 23 105 68 160 100 93 54 216 145 246 181 9 11 9 18 1 26 -9 9 -17 7 -34
-9 -29 -26 -135 -95 -207 -135 -31 -17 -71 -40 -90 -50 -19 -11 -72 -44 -117
-74 -91 -60 -154 -90 -209 -98 -57 -9 -73 -23 -85 -69 -21 -85 -18 -83 -86
-38 -33 22 -73 52 -88 66 -26 24 -27 29 -21 78 4 29 9 61 11 72 34 166 7 262
-78 281 -33 7 -58 51 -58 102 0 45 49 172 85 222 18 25 69 100 113 167 45 67
86 124 92 128 6 4 25 37 41 73 16 37 50 106 74 154 25 48 45 92 45 98 0 22 77
175 123 244 25 37 65 89 89 115 101 107 141 170 275 431 64 125 77 159 94 249
14 69 35 135 62 195 42 91 42 91 42 211 0 66 -4 161 -9 210 -5 50 -9 112 -10
138 l-1 49 113 38 c62 22 126 49 143 60 34 25 59 68 60 107 3 65 -5 62 172 63
89 0 180 2 202 5 22 2 67 7 100 10 147 14 251 46 286 88 33 40 52 113 46 183
-7 73 5 89 54 72 15 -5 46 -7 70 -4 55 6 163 -34 200 -74 17 -18 41 -30 69
-35 23 -4 58 -16 76 -27 l34 -20 1 -166 c0 -92 2 -187 4 -212 2 -25 4 -54 4
-65 4 -51 63 -78 103 -46 21 18 22 21 23 347 0 181 4 339 7 352 13 44 89 186
132 246 76 105 321 369 387 416 l26 19 22 -65 c28 -77 30 -94 31 -294 1 -115
-3 -172 -15 -219 -15 -57 -55 -179 -75 -226 -4 -11 -16 -42 -25 -70 -29 -83
-90 -199 -167 -320 -118 -186 -148 -238 -148 -266 0 -31 17 -48 54 -55 34 -6
45 8 156 186 123 197 173 260 207 261 16 0 59 3 98 5 60 4 77 1 130 -23 55
-25 71 -28 195 -29 74 -1 152 -5 174 -8 21 -3 66 -1 100 3 53 8 70 6 131 -16
46 -16 94 -24 140 -25 68 -1 70 -2 111 -43 53 -55 113 -67 240 -50 l87 12 63
-44 c88 -60 127 -73 279 -89 149 -16 163 -21 221 -74 63 -56 90 -62 179 -35
l50 15 25 -28 c38 -43 71 -62 106 -62 55 0 77 61 24 68 -15 2 -46 26 -77 59
l-52 56 -53 -6 c-29 -3 -62 -9 -73 -12 -14 -4 -34 8 -70 41 -71 65 -79 68
-285 90 -89 9 -159 30 -197 61 -85 67 -96 73 -137 69 -23 -3 -82 -8 -133 -12
l-92 -7 -33 37 c-47 54 -81 69 -155 67 -43 -1 -84 6 -135 24 -61 21 -90 25
-178 24 -58 -1 -166 1 -240 3 -122 4 -141 7 -194 33 -55 26 -64 27 -152 22
-52 -3 -94 -4 -94 -2 0 1 11 31 24 66 100 270 109 309 109 504 0 94 -3 195 -7
225 -10 81 -44 175 -80 223 -71 94 -129 75 -300 -97 -147 -148 -185 -189 -262
-286 -105 -130 -178 -269 -198 -373 -10 -55 -12 -58 -36 -51 -14 4 -34 7 -45
8 -11 1 -29 15 -40 31 -15 21 -34 33 -66 41 -25 6 -61 19 -79 29 -23 12 -64
19 -125 22 -124 5 -133 5 -156 -7 -16 -9 -19 -7 -20 12 0 13 -2 39 -4 58 -16
179 -16 293 0 372 16 83 145 479 192 593 50 120 168 295 303 450 29 33 78 89
109 125 96 112 189 197 335 308 78 58 152 117 166 129 14 13 28 23 33 23 4 0
13 11 19 25 9 21 8 28 -7 45 -18 20 -36 24 -65 13z m-1694 -1790 c-19 -49 -42
-118 -51 -154 -23 -82 -34 -94 -30 -32 5 72 13 109 37 161 25 54 69 124 75
119 2 -2 -12 -44 -31 -94z"/>
<path d="M3890 5029 c-72 -100 -146 -277 -170 -409 -14 -77 -20 -309 -8 -339
6 -17 11 -20 26 -12 14 8 18 23 20 80 1 39 4 85 6 103 3 18 8 60 11 93 15 129
68 270 159 421 41 68 41 67 20 88 -23 23 -31 20 -64 -25z"/>
<path d="M2518 3856 c-48 -17 -100 -61 -126 -106 -22 -38 -58 -145 -67 -199
-3 -19 -8 -37 -10 -41 -2 -4 1 -15 8 -25 13 -16 14 -16 30 0 9 9 17 25 17 36
0 17 8 19 73 19 164 1 295 37 374 103 72 62 8 155 -141 207 -68 23 -106 25
-158 6z"/>
<path d="M1169 1766 c-2 -2 -33 -7 -69 -10 -48 -5 -89 -19 -159 -53 -157 -76
-220 -154 -224 -273 -2 -43 1 -55 13 -55 14 0 16 7 19 71 2 33 56 106 108 145
67 52 178 106 254 125 71 18 89 28 73 44 -6 6 -12 8 -15 6z"/>
</g>
</svg>
