<?xml version="1.0" encoding="UTF-8" standalone="no"?>
<!DOCTYPE svg PUBLIC "-//W3C//DTD SVG 1.1//EN" "http://www.w3.org/Graphics/SVG/1.1/DTD/svg11.dtd">
<svg width="100%" height="100%" viewBox="0 0 3662 3662" version="1.1" xmlns="http://www.w3.org/2000/svg" xmlns:xlink="http://www.w3.org/1999/xlink" xml:space="preserve" xmlns:serif="http://www.serif.com/" style="fill-rule:evenodd;clip-rule:evenodd;stroke-linejoin:round;stroke-miterlimit:2;">
    <g transform="matrix(1.00226,0,0,1.00057,-0.00656272,-0.00182158)">
        <rect x="2.902" y="3.176" width="3653.16" height="3659.32"/>
    </g>
    <g id="Layer1">
    </g>
    <g transform="matrix(2.68283,0,0,1.98758,1622.52,-2006.48)">
        <path d="M-517.295,1302.25L-517.295,2558.92L-454.079,2558.92L-454.079,1983.38L-235.817,1983.38L-235.817,1842.58L-454.079,1842.58L-454.079,1443.05L-205.207,1443.05L-205.207,1302.25L-517.295,1302.25Z" style="fill:white;fill-rule:nonzero;"/>
        <path d="M-72.121,1904.18L-72.121,1443.05L51.649,1443.05C87.583,1443.05 113.867,1462.7 130.503,1502.01C147.139,1541.32 155.457,1598.52 155.457,1673.62C155.457,1748.71 147.139,1806.21 130.503,1846.1C113.867,1886 87.583,1905.36 51.649,1904.18L-72.121,1904.18ZM-135.337,1302.25L-135.337,2558.92L-72.121,2558.92L-72.121,2044.99L72.943,2044.99C120.854,2046.16 157.12,2013.89 181.741,1948.18C206.362,1882.48 218.673,1790.95 218.673,1673.62C218.673,1556.28 206.362,1465.05 181.741,1399.93C157.12,1334.81 120.854,1302.25 72.943,1302.25L-135.337,1302.25Z" style="fill:white;fill-rule:nonzero;"/>
        <path d="M295.863,1302.25L295.863,2558.92L359.079,2558.92L359.079,1983.38L609.282,1983.38L609.282,2558.92L672.498,2558.92L672.498,1302.25L609.282,1302.25L609.282,1842.58L359.079,1842.58L359.079,1302.25L295.863,1302.25Z" style="fill:white;fill-rule:nonzero;"/>
    </g>
</svg>
